<svg xmlns="http://www.w3.org/2000/svg" viewBox="0 0 512 512">
  <rect width="512" height="512" rx="96" fill="#155b37"/>
  <circle cx="256" cy="256" r="154" fill="#f8fbf5"/>
  <path fill="#12231b" d="m256 123 74 54-28 86h-92l-28-86 74-54Z"/>
  <path fill="#155b37" d="m137 240 45-63 28 86-74 54-17-30 18-47Zm238-63 45 63 18 47-17 30-74-54 28-86ZM210 263h92l28 86-74 54-74-54 28-86Z"/>
  <path fill="#12231b" d="M118 287c23 74 78 125 138 125s115-51 138-125l27 31c-30 77-92 126-165 126S121 395 91 318l27-31Zm18-96c24-72 77-123 120-123s96 51 120 123l-46-14c-22-43-50-69-74-69s-52 26-74 69l-46 14Z"/>
</svg>
